<svg id="Layer_1" data-name="Layer 1" xmlns="http://www.w3.org/2000/svg" viewBox="0 0 300 400"><g id="seedling"><path d="M186.085,299.5c2.316-.52,4.7-1.181,7.044-1.5-2.725,3.232-5.357,6.5-7.949,9.84-5.595,7.207-13.823,18.878-23.848,19.666a5.237,5.237,0,0,1-3.913-1,4.742,4.742,0,0,1-1.531-2.305,20.626,20.626,0,0,1-.66-2.049,11.07,11.07,0,0,1,1.419-8.065C161.89,305.444,176.94,301.821,186.085,299.5Z" fill="#588c3e"/><path d="M155.888,324.2a20.626,20.626,0,0,1-.66-2.049,11.07,11.07,0,0,1,1.419-8.065c5.243-8.645,20.293-12.268,29.438-14.59l1.771.34c-.281.308-.246.34-.675.454-2.257.6-3.544,1.976-5.536,3.041a82.019,82.019,0,0,0-10.071,5.765c-2.176,1.581-4.236,3.725-6.5,5.109-1.521,1.59-7.275,9.186-8,9.737a2.587,2.587,0,0,1-.722.225Z" fill="#6ca54d"/><path d="M156.345,324.17a3.256,3.256,0,0,1,.3-2.092c1.439-2.448,7.558-9.619,10.012-10.309-.082.937-1,1.742-1.587,2.439-1.521,1.59-7.275,9.186-8,9.737A2.587,2.587,0,0,1,156.345,324.17Z" fill="#77ad57"/><path d="M133.6,400c-.044-.277-.083-.553-.1-.833a10.039,10.039,0,0,1,2.191-6.839,7.214,7.214,0,0,1,5.012-2.573c3.146-.176,5.1,1.439,7.277,3.443l.286.264c1.27,1.168,3.965,2.165,4.066,4.087a5.626,5.626,0,0,1-.464,2.132l-.233.319H133.6Z" fill="#d8d6a4"/><path d="M133.6,400c-.044-.277-.083-.553-.1-.833a10.039,10.039,0,0,1,2.191-6.839,7.214,7.214,0,0,1,5.012-2.573c3.146-.176,5.1,1.439,7.277,3.443l.286.264c1.27,1.168,3.965,2.165,4.066,4.087a5.626,5.626,0,0,1-.464,2.132l-.233.319h-3.162a3.283,3.283,0,0,0,.841-1.952,8.731,8.731,0,0,0-2.671-3.354c-2.705-2.266-4.737-2.05-8.007-1.758a17.362,17.362,0,0,1-2.246,2.734l.035,4.33Z" fill="#e6bf86"/><path d="M104.063,320.3c9.134-3.072,26.591-7.986,35.8-3.512,2.117,1.03,4.472,3.08,5.206,5.388a15.485,15.485,0,0,1,.48,2.5l.487.714,2.2,1.213-.117.581a2.812,2.812,0,0,0-1.3-.134c-.659.323-1.3,1.348-1.833,1.874a13.287,13.287,0,0,1-4.874,2.925c-8.9,3.016-21.4-2.372-29.6-5.708-3.549-1.444-7.165-2.825-10.6-4.531Z" fill="#588c3e"/><path d="M104.063,320.3c9.134-3.072,26.591-7.986,35.8-3.512,2.117,1.03,4.472,3.08,5.206,5.388a15.485,15.485,0,0,1,.48,2.5l.487.714a1.421,1.421,0,0,1-.178.11c-1.068.416-5.532-2.065-6.868-2.6-4.229-.426-8.187-1.819-12.517-2.068C123.166,320.633,105.341,320.749,104.063,320.3Z" fill="#6ca54d"/><path d="M138.993,322.893l-.358-.168c-3.629-1.651-8.136-2.019-12.085-2.235a4.674,4.674,0,0,1,1.025-.179,1.525,1.525,0,0,0,.977-.426c5.365.219,12.817,1.283,17,4.787l.487.714a1.421,1.421,0,0,1-.178.11C144.793,325.912,140.329,323.431,138.993,322.893Z" fill="#77ad57"/><path d="M150.06,326.736c.305-.733.371-1.247,1.09-1.654a3.241,3.241,0,0,0,1.722.371c.107-.024.212-.055.318-.082.6.669.8.833.715,1.794-.151,1.609-.526,3.169-.626,4.811-.43,7.039-.1,14.231-.174,21.292-.113,10.43-.348,20.809-.833,31.227.563,1.991.8,13.267-.044,14.693a2.828,2.828,0,0,1-.359.493,5.626,5.626,0,0,0,.464-2.132c-.1-1.922-2.8-2.919-4.066-4.087l-.286-.264a3.243,3.243,0,0,0,.709-.52c.645-3.522,1.759-61.569,1.126-63.941-.216-.809-1.039-1.134-1.7-1.557l.117-.581C148.833,326.639,149.469,326.642,150.06,326.736Z" fill="#85b866" fill-opacity="0.988"/><path d="M150.06,326.736a27.783,27.783,0,0,1,.516-8.727,1.993,1.993,0,0,1,.984-1.53,4.479,4.479,0,0,1,.828.557c1.395,1.329.492,6.124.762,8.064l.04.271c-.106.027-.211.058-.318.082a3.241,3.241,0,0,1-1.722-.371C150.431,325.489,150.365,326,150.06,326.736Z" fill="#6ca54d" fill-opacity="0.984"/></g></svg>