<svg id="Layer_1" data-name="Layer 1" xmlns="http://www.w3.org/2000/svg" xmlns:xlink="http://www.w3.org/1999/xlink" viewBox="0 0 300 400"><defs><linearGradient id="linear-gradient" x1="148.882" y1="313.506" x2="183.49" y2="330.859" gradientTransform="matrix(1, 0, 0, -1, 0, 402)" gradientUnits="userSpaceOnUse"><stop offset="0" stop-color="#52863d"/><stop offset="1" stop-color="#75ac56"/></linearGradient><linearGradient id="linear-gradient-2" x1="246.805" y1="123.671" x2="234.499" y2="168.931" gradientTransform="matrix(1, 0, 0, -1, 0, 402)" gradientUnits="userSpaceOnUse"><stop offset="0" stop-color="#558a3e"/><stop offset="1" stop-color="#7ab35d"/></linearGradient><linearGradient id="linear-gradient-3" x1="190.425" y1="146.839" x2="181.44" y2="172.586" gradientTransform="matrix(1, 0, 0, -1, 0, 402)" gradientUnits="userSpaceOnUse"><stop offset="0" stop-color="#649d46"/><stop offset="1" stop-color="#8abd6b"/></linearGradient><linearGradient id="linear-gradient-4" x1="119.377" y1="72.655" x2="108.744" y2="95.472" gradientTransform="matrix(1, 0, 0, -1, 0, 402)" gradientUnits="userSpaceOnUse"><stop offset="0" stop-color="#5f8e3e"/><stop offset="1" stop-color="#6da64e"/></linearGradient></defs><g id="fruiting"><path d="M179.879,115.3c-11.951,1.083-25.88-9.2-28.728-20.612-3.509-14.071-6.11-28.667-9.658-42.771-.335-1.332-.808-1.606-.636-3.134,4.123,1.879,8.706,5.3,13.078,7.417,16.157,7.841,33.367,14.167,39.427,32.832.6,1.833-.049,5.821,1.056,7.153,1.142-.253,1.688-1.009,2.542-1.867l.78.223c.2,1.224-.581,1.18-.654,2.948-5.327,6.951-8.246,13.319-12.3,21.016a100.8,100.8,0,0,1,12.292-1.034c2.176-2.723-1.188-12.707,9.943-14.009,7.4-.866,14.229,2.332,19.856,6.868,15.233,12.28,26.024,29.923,36.324,46.264a12.7,12.7,0,0,1,2.121,3.786c-4.78-.14-15.3-1.772-20.737-2.35-4.43-.471-17.124-1.736-21.106-2.667l-.976.385c-.037,1.6,5.829,3.97,7.429,4.978a23.489,23.489,0,0,1,3.776,1.829c-1.032,1.144-25.588,8.156-28.986,10.027a19.761,19.761,0,0,1-4.786.971c-1.179,2.125-2.929,5.216-.676,6.989,2.481,1.116,9.348,3.733,10.856,5.269-.4,2.171-7.638,5.984-9.815,6.486-.218,2.634.347,3.787,1.354,6.262l.761.652c.645,1.911.409,5.211-1.2,6.47a27.6,27.6,0,0,1-4.077-2.105l-.393.214a12.8,12.8,0,0,0-3.411-1.681c-1.473,1.938-3.426,4.621-5.415,5.979-1.01,1.022-2.474,2.785-3.745,3.174-1.2-.45-1.253-1.252-1.695-2.463-1.409-2.652-1.79-4.728-2.9-7.426a49.215,49.215,0,0,0-16.915,9.355c5.759-.457,10.656-.207,14.143,5.241,1.774,2.247,2.094,2.184,4.927,2.889,1.526,2.507,4.627,6.071,6.573,8.565,2.465,3.179,3.536,5.708,5.553,8.754,2.607-.03,13.514.122,15.206-.614l-.126-.53a20.326,20.326,0,0,0,1.875-3.19c.974-.376,2.082-.712,3.083-1.04a6.641,6.641,0,0,0,2.336,1.973c1.409.124,2.563-.8,3.862-1.54,2.876,2.111,1.83,5.445,3.14,9.1,1.941,1.416,4.04,2.5,6.091,3.767,9.124,5.647,17.582,12.368,25.923,19.1,1.78,1.438,6.1,3.874,7.413,5.289,1.069.712,2.874,2,3.936,2.588a28.581,28.581,0,0,0,4.27,2.05c-3.92.8-9.79,1.27-13.959,1.74Q247.357,276,237.824,277.3c-2.481.33-8.7.965-10.555,1.939-.546,1.423-1.314,10.05-2.078,13.311a29.3,29.3,0,0,0-.9,3.572,34.509,34.509,0,0,1-3.628,9.259c-2.929,4.884-6.714,8.086-11.423,11.187a13.99,13.99,0,0,1-4.314,2.308c-.473.1-.494.01-.89-.257a1.8,1.8,0,0,1,.068-.634c.4-.812,2-2.077,2.643-2.844a32.721,32.721,0,0,0,4.38-6.935c3.034-6.463,3.448-19.465.9-26.088-.218-.569-.531-.574-1.068-.821a60.661,60.661,0,0,1-18.659-1.531c-11.107-2.757-18.807-7.7-24.722-17.565-3.1.015-8.593,3.5-10.334,5.966a4.079,4.079,0,0,0-1.308,1.875c-1.083,9.671-.893,19.553-1.568,29.284a3.577,3.577,0,0,0,1.439,2.842c-.184.336-.386.3-.868.475-.752.592-.768.693-.884,1.689-.863,7.39-.458,15.159-.6,22.61q-.594,22.425-.543,44.857c0,8.47.463,17.148.119,25.6-.034.844.074,1.446-.546,2.063-1.738.552-3.963.205-5.781.187q-.091-18.111.111-36.216c.027-5.225.632-11.266-.135-16.409-.24-4.988.273-10.179.5-15.174.252-5.435.3-10.886.593-16.314.187-3.381.684-6.928.577-10.305a2.548,2.548,0,0,0-.406-1.3l-.586-.444.218-.517c1.065-1.387,1-8.031,1.13-10.166.546-8.925,1.308-17.6,2.192-26.5q-.4-.529-.841-1.031a53.653,53.653,0,0,0-7.384-6.506l-1.12-.076c.227-1.506-6.61-6.587-8.114-7.806a10.8,10.8,0,0,0-5.2,1.025c1.458-1.518,3.14-2.854,4.255-4.7.564-.937.742-1.644,1.43-2.6,2.382-4.663,2.164-10.557-2.508-13.679a9.99,9.99,0,0,0,2.953-.185c3.761,4.645,10.622,13.914,10.165,20.328-.126,1.72-1.283,3.118-.869,4.607,1.059.866,2.64,2.086,3.555,3.024.906.757,2.158,1.609,3.134,2.314.151-6.01.332-10.9.946-16.913.4-3.4,3.979-23.961,3.279-25.189-1.087-1.91-4.225-2.906-6.2-3.437-6.64-1.782-9.891,2.1-15.211,5.187l-1.293-.192-.893-1.112a21.911,21.911,0,0,1,9.2-6.812c6.554-2.239,11.644.542,17.339,3.368-2.846-7.483-7.35-16.767-14.917-20.875-1.093-.593-1.566-.294-2.551.081l-.135-.657c-.6-2.207-1.21-2.355-3.107-3.738l.153.02.258.039a24.908,24.908,0,0,1,10.9,4.606c1.959,1.4,7.2,9.308,9.091,9.337,1.565-3.627-3.626-18.514-5.726-22.4-2.591-4.8-4.442-11.692-8.811-15.1-6.747-1.03-11.119-.135-16.909,3.221-1.366-.02-1.062.382-1.921.353l-.231-1.311c7.485-4.525,8.82-5.378,17.5-5.616-4.63-8.878-16.734-17.152-26.141-20.193-3.957-1.279-14.858-4.186-18.671-2.859a1.859,1.859,0,0,1-1.28-.424,39.258,39.258,0,0,0-4.3-1.161c-2.425-.5-6.247.652-7.773-1.659l.2.42.052-.575-.221.067a4.724,4.724,0,0,1,2.625,1.081,35.713,35.713,0,0,1,5.046-.308c2.22.556,4.876-.552,7.249-.426,7.957.423,15.6,1.542,22.981,4.651,1.817.766,8.924,5,10,4.9l.169-.451c-.713-2.5-6.65-10.767-8.5-13.482,1.673-1.47,1.956-1.639,2.367-3.725l.006,2.366-.193.539c.531.661.8.9,1.7.631a12.633,12.633,0,0,0,2.673,5.165l.289.343,1.916.112c.316,2.557-1.155,4.007,1.353,5.47,1.152,1.679,6.143,8.431,6.862,9.959.816-.81.322-2.9.184-4.016-.055-3.2.012-9.572-1.207-12.319,5.76-.509,2.364,10.476,3.967,14.195.832,8.507.872,8.694,5.526,16.04,3.146,4.972,6.284,11.365,8.906,16.67.684,1.386,1.663,4.548,3.088,5.127.669-.862.783-5.4,1.111-6.9,3.893-17.9,8.264-35.277,15.78-52.063C178.114,128.29,182.491,117.152,179.879,115.3ZM166.248,258.914c.608-1.5-.092-2.088-.039-3.447.184-4.912,3.837-8.91,7.14-12.07a18.02,18.02,0,0,1-.893-4.529c.761-6.286,1.722-12.254,1.642-18.642-.015-1.288.943-1.61.488-3.29-3.852-3.528-6.566-3.335-11.475-2.8-.593.234-1.55.461-1.639.987-.522,3.137-.255,5.909-.7,9.172.009,6.478-1.33,12.483-1.68,18.772-.313,5.61-1.384,13.405-1.28,18.89l.369.308C160.809,261.632,163.584,259.682,166.248,258.914Zm16.765-95.67a1.536,1.536,0,0,0,.424-1.01c-3.46-3.719,7.147-10.658,9.962-12.345-9.235-8.033-12.225-17.111-5.336-27.967-3.395-.919-4.9.915-5.8,3.919-2.585,8.627-5.94,17.476-8.543,26.012-1.6,5.256-2.84,11.271-3.979,16.576-.153.721-.3,1.444-.448,2.167C173.558,168.409,178.811,164.249,183.013,163.244Zm8.485,8.337c-.1,2.134-.386,5.334.39,7.261,2.137.044,2.585-.283,4.265-1.43l.4-.668.862-1.145a25.888,25.888,0,0,0,3.113-7.807C196.662,169.874,195.225,172.142,191.5,171.581Zm-21.081,18.6c.356-.771.182-1.893.562-2.836,1.237-3.079-.129-4.4-1.885-6.863a6.037,6.037,0,0,0-1.71-2.061c-1,.9-2.729,14.641-1.912,16.365C166.97,195.481,169.9,191.4,170.417,190.176Zm2.705,5.118c-1.566-.333-1.762-.485-3.242.494-2.493,1.651-6.824,5.742-6.523,9.042l.368.169c2.637-1.328,5.277-2.965,7.841-4.432,1.43-.819,5.461-2.224,6.106-3.356l-.206-.867C176.223,196.205,174.083,196.019,173.122,195.294Z" fill="#82b764"/><path d="M160.769,224.3c.448-3.263.181-6.035.7-9.172.089-.526,1.046-.753,1.639-.987C163.083,216.919,163.617,223.019,160.769,224.3Z" fill="#fff" fill-opacity="0.012"/><path d="M179.879,115.3c-11.951,1.083-25.88-9.2-28.728-20.612-3.509-14.071-6.11-28.667-9.658-42.771-.335-1.332-.808-1.606-.636-3.134,4.123,1.879,8.706,5.3,13.078,7.417,16.157,7.841,33.367,14.167,39.427,32.832.6,1.833-.049,5.821,1.056,7.153-.175,1.362-10.06,16.439-11.647,19.054-.495-2.619-1.093-5.934-1.391-8.625a15.8,15.8,0,0,1,1-2.92l-.237-.135-.828,1.223c-.734-.607-3.224-9.324-3.749-10.813-.212-.6.427-2.626-.049-3.953-2.668,2.43,5.366,19.278,4.058,24.57-.859.4-.438.384-1.295.1-.445-1.9.516-9.124-2.778-8.066l.276.221C180.929,109.372,178.771,112.086,179.879,115.3Z" fill="url(#linear-gradient)"/><path d="M154.791,72.446c2.763.019,8.98,3.866,11.666,5.235-.5-.674-.936-1.4-1.384-2.108l.082-.169.412.621.046-.173c1.513,2.05,3.058,4.093,4.528,6.177,1.078,1.529,4.887,8.09,4.6,9.773l-.722.393.884.266c1.271,1.247,1.431,3,2.116,4.583l.144.327-.221.008c-.835-.678-.768-1.178-1.078-2.136-.746-2.32-3.26-3.294-5.225-4.405a73.086,73.086,0,0,0-10.284-5.04l-.043-.215c2.183-.533,11.626,4.684,14.1,5.953a73.1,73.1,0,0,0-6.453-11.724A91.78,91.78,0,0,1,154.791,72.446Z" fill="#6ca54d"/><path d="M193.4,149.889c3.678.406,7.776-2.053,13.624-.825,5.882,1.235,11.448,5.861,16.225,6.02l.233.278-.976.385c-.037,1.6,5.829,3.97,7.429,4.978a23.489,23.489,0,0,1,3.776,1.829c-1.032,1.144-25.588,8.156-28.986,10.027a19.761,19.761,0,0,1-4.786.971c-1.179,2.125-2.929,5.216-.676,6.989,2.481,1.116,9.348,3.733,10.856,5.269-.4,2.171-7.638,5.984-9.815,6.486-.218,2.634.347,3.787,1.354,6.262l.761.652c.645,1.911.409,5.211-1.2,6.47a27.6,27.6,0,0,1-4.077-2.105l-.393.214a12.8,12.8,0,0,0-3.411-1.681c-1.473,1.938-3.426,4.621-5.415,5.979-1.01,1.022-2.474,2.785-3.745,3.174-1.2-.45-1.253-1.252-1.695-2.463.246-3.316-3.266-7.173-3.779-10.3a15.424,15.424,0,0,0-.651-2.365l-.589.211c-1.243-.139-3.383-.325-4.344-1.05-.433-1.044-.212-.672-1.268-1.477a13.9,13.9,0,0,1-1.437-3.641c.356-.771.182-1.893.562-2.836,1.237-3.079-.129-4.4-1.885-6.863l.473-.079c-2.18-4.749-.881-4.57-4.577-8.015a45.291,45.291,0,0,1,5.572-.238c5.16.92,9.955,3.657,12.037-3.342a4.125,4.125,0,0,0,.021-3.361,2.392,2.392,0,0,1,.654-1.983l-.261-.215a1.536,1.536,0,0,0,.424-1.01C179.977,158.515,190.584,151.576,193.4,149.889Zm-1.511,28.953c2.137.044,2.585-.283,4.265-1.43l.4-.668.862-1.145a25.888,25.888,0,0,0,3.113-7.807c-3.865,2.082-5.3,4.35-9.029,3.789C191.4,173.715,191.112,176.915,191.888,178.842Z" fill="#d8d7a3"/><path d="M193.4,149.889c3.678.406,7.776-2.053,13.624-.825,5.882,1.235,11.448,5.861,16.225,6.02l.233.278-.976.385c-.037,1.6,5.829,3.97,7.429,4.978a23.489,23.489,0,0,1,3.776,1.829c-1.032,1.144-25.588,8.156-28.986,10.027a19.761,19.761,0,0,1-4.786.971l-.295-.57c-1.268,1.164-.672,1.626-2.229,2.617a25.888,25.888,0,0,0,3.113-7.807c-3.865,2.082-5.3,4.35-9.029,3.789-.1,2.134-.386,5.334.39,7.261l-.488.078a11.129,11.129,0,0,1-.534-5.912c1.461-3.974-1.1-6.028-3.552-8.746l-.945-.9a2.054,2.054,0,0,0-1.551-1.119q-.783.6-1.544,1.219l-.261-.215a1.536,1.536,0,0,0,.424-1.01C179.977,158.515,190.584,151.576,193.4,149.889Z" fill="#6ca54d"/><path d="M192.745,161.52c1.2.549,4.421,2.432,5.363,2.32l.16-.3c-.924-1.263-2.057-1.221-3.205-2.568,2.655-1.186,5.332-1.178,8.1-1.484,3.435-.379,2.769.641,4.967,1.264a3.843,3.843,0,0,0,1-1.03l.117-.153c4.135-.313,18.788,2.61,20.691,1.159a23.489,23.489,0,0,1,3.776,1.829c-1.032,1.144-25.588,8.156-28.986,10.027a19.761,19.761,0,0,1-4.786.971l-.295-.57c-1.268,1.164-.672,1.626-2.229,2.617a25.888,25.888,0,0,0,3.113-7.807c-3.865,2.082-5.3,4.35-9.029,3.789-.1,2.134-.386,5.334.39,7.261l-.488.078a11.129,11.129,0,0,1-.534-5.912c1.461-3.974-1.1-6.028-3.552-8.746l.249-.678A19.814,19.814,0,0,1,192.745,161.52Z" fill="#588c3e"/><path d="M183.274,163.459q.761-.623,1.544-1.219a2.054,2.054,0,0,1,1.551,1.119c1.215,3.695,3.871,18.2-.1,20.492-1.123.088-.669.178-1.725-.439-3.438-6.357-5.372-6.978-12.252-9.572a2.181,2.181,0,0,0-1.326-.044l-.111.316c5.278,1.721,12.98,6.667,13.692,12.674-.89,2.335-3.708,1.325-5.75,1.676l.141.314c.516.07,1.287.012,1.609.429.27.353.187.2.292.644-2.33,2.751-1.612,5.112-2.785,6.284l-.589.211c-1.243-.139-3.383-.325-4.344-1.05-.433-1.044-.212-.672-1.268-1.477a13.9,13.9,0,0,1-1.437-3.641c.356-.771.182-1.893.562-2.836,1.237-3.079-.129-4.4-1.885-6.863l.473-.079c-2.18-4.749-.881-4.57-4.577-8.015a45.291,45.291,0,0,1,5.572-.238c5.16.92,9.955,3.657,12.037-3.342a4.125,4.125,0,0,0,.021-3.361A2.392,2.392,0,0,1,183.274,163.459Z" fill="#eef3cc"/><path d="M178.939,188.776c.516.07,1.287.012,1.609.429.27.353.187.2.292.644-2.33,2.751-1.612,5.112-2.785,6.284l-.589.211c-1.243-.139-3.383-.325-4.344-1.05-.433-1.044-.212-.672-1.268-1.477C172.121,189.474,175.111,188.89,178.939,188.776Z" fill="#588c3e"/><path d="M169.567,180.4c2.336,3.124,5,7.633,9.231,8.064l.141.314c-3.828.114-6.818.7-7.085,5.041a13.9,13.9,0,0,1-1.437-3.641c.356-.771.182-1.893.562-2.836,1.237-3.079-.129-4.4-1.885-6.863Z" fill="#629441"/><path d="M180.84,189.849c3.773-1.177,4.967-2.576,6.628,2.731,1,3.2.245,10.89-1.145,13.691l.162.546.409-.009c1.111-3.857,2.974-7.372,2.044-11.13-.218-.876-.746-3.638-.516-4.349l2.045-.613c1.489,1.084,1.4,6.675,1.394,8.57a59.9,59.9,0,0,1-3.491,6.875,2.423,2.423,0,0,0-.445,1.926c-1.01,1.022-2.474,2.785-3.745,3.174-1.2-.45-1.253-1.252-1.695-2.463.246-3.316-3.266-7.173-3.779-10.3a15.424,15.424,0,0,0-.651-2.365C179.228,194.961,178.51,192.6,180.84,189.849Z" fill="#eef3cc"/><path d="M199.262,180.541c2.481,1.116,9.348,3.733,10.856,5.269-.4,2.171-7.638,5.984-9.815,6.486l-.651.082c-.755,1.478.114,1.491-.365,2.631-1.808-2.165-4.405-5.058-5.732-7.525-.331-.618,3.537-2.6,3.841-4.3A4.344,4.344,0,0,1,199.262,180.541Z" fill="#f6f7d6"/><path d="M195.775,186.138a34.086,34.086,0,0,1,8.025.026l.122.421a52.569,52.569,0,0,1-5.989.294C196.908,186.853,196.5,186.881,195.775,186.138Z" fill="#e1e4b7"/><path d="M193.126,199.922c.107-1.834-.5-8.159.521-8.891,2.18.812,4.427,5.9,6.278,7.478.547.465.989.2,1.732.049l.761.652c.645,1.911.409,5.211-1.2,6.47a27.6,27.6,0,0,1-4.077-2.105C196.892,202.074,194.983,201.75,193.126,199.922Z" fill="#eef3cc"/><path d="M196.153,177.412l.4-.668c3.076,3.295-2.014,10.087-5.308,10.131l-.756-.569.022-.541c1.593-.861,2.4-.818,1.882-2.653C193.215,180.87,195.757,179.626,196.153,177.412Z" fill="#f6f7d6"/><path d="M191.888,178.842l1.041.725c.4,1.885-2.548,4.965-4.319,4.155,1.393-2.529,1.034-5.867,1.225-9.082.15,2.055-.393,3.238,1.565,4.28Z" fill="#f6f7d6"/><path d="M188.063,121.922l.479.013.273-.155c2.754-1.567,11.792-3.608,14.113-1,.252-.111,1.176-.718,1.464-.9a77.1,77.1,0,0,1,15.163,3.912l1.184,2.158c1.155.082,1.364-.994,1.784-.819,13.471,5.613,27.857,18.536,37.284,28.835a9.36,9.36,0,0,0,3.15,3.106l.246-.48a12.7,12.7,0,0,1,2.121,3.786c-4.78-.14-15.3-1.772-20.737-2.35-4.43-.471-17.124-1.736-21.106-2.667l-.233-.278c-4.777-.159-10.343-4.785-16.225-6.02-5.848-1.228-9.946,1.231-13.624.825C184.164,141.856,181.174,132.778,188.063,121.922Z" fill="#588c3e"/><path d="M202.928,120.779c.252-.111,1.176-.718,1.464-.9.233,1.308,1.873,3.293,2.5,4.72a37.637,37.637,0,0,1,3.316,19.352c-.593-2.083-.246-3.855-.584-5.611-.485-2.526-1.212-5.826-1.743-8.334C207.456,127.992,203.121,121.462,202.928,120.779Z" fill="#6ca54d"/><path d="M220.1,231.235c2.876,2.111,1.83,5.445,3.14,9.1,1.941,1.416,4.04,2.5,6.091,3.767,9.124,5.647,17.582,12.368,25.923,19.1,1.78,1.438,6.1,3.874,7.413,5.289,1.069.712,2.874,2,3.936,2.588a28.581,28.581,0,0,0,4.27,2.05c-3.92.8-9.79,1.27-13.959,1.74Q247.357,276,237.824,277.3c-2.481.33-8.7.965-10.555,1.939-.546,1.423-1.314,10.05-2.078,13.311-.181-4.366.878-9.477,1.185-14.106l-.421.04c-1.129,1.7.347,4.076-.807,5.723a100.777,100.777,0,0,0-.936-16.3c-1.664-9.455-2.539-18.786-3.519-28.323C220.405,236.787,220.506,234.06,220.1,231.235Z" fill="url(#linear-gradient-2)"/><path d="M266.6,271.079l-.783.221c-2.726-.62-5.593-1.8-8.282-2.7l-14.475-4.782c-2.385-.78-16.912-4.656-17.649-5.744l.387-.4a6.507,6.507,0,0,1,2.324-.05c4.166,1.269,28.114,7.859,29.489,9.692l-1.215-.144-.157.346a28.306,28.306,0,0,0,5.983,2.232c-.067-.442-.942-1.122-1.354-1.516a7,7,0,0,0,1.8.257C263.734,269.2,265.539,270.492,266.6,271.079Z" fill="#82b764"/><path d="M176.809,215.968c1.774,2.247,2.094,2.184,4.927,2.889,1.526,2.507,4.627,6.071,6.573,8.565,2.465,3.179,3.536,5.708,5.553,8.754,2.607-.03,13.514.122,15.206-.614-.059-.78-2.527,14.156-2.536,14.194-3.184.794-8.135,3.544-9.621,3.748-4.734.65-9.873.478-15.043,1.113a4.445,4.445,0,0,1,.08-.733l-.439-.516a22.8,22.8,0,0,0-2.938,1.93,38.367,38.367,0,0,1-8.964,2.038c-2.241.377-.685,1.415-3.359,1.578.608-1.5-.092-2.088-.039-3.447.184-4.912,3.837-8.91,7.14-12.07a18.02,18.02,0,0,1-.893-4.529c.761-6.286,1.722-12.254,1.642-18.642-.015-1.288.943-1.61.488-3.29a4.663,4.663,0,0,0,1.876.919C177.039,217.121,176.83,217.186,176.809,215.968Z" fill="url(#linear-gradient-3)"/><path d="M176.809,215.968c1.774,2.247,2.094,2.184,4.927,2.889,1.526,2.507,4.627,6.071,6.573,8.565-2.171,2.559-2.155.292-4.63,1.441-.454,1.325-.607,2.416-1.688,3.155-1.79.309-3.18-1.053-4.335-2.256-4.783,4.9-4.024,7.026-4.307,13.635a18.02,18.02,0,0,1-.893-4.529c.761-6.286,1.722-12.254,1.642-18.642-.015-1.288.943-1.61.488-3.29a4.663,4.663,0,0,0,1.876.919C177.039,217.121,176.83,217.186,176.809,215.968Z" fill="#588c3e"/><path d="M177.963,218.725a21.881,21.881,0,0,1,2.131,1.1c.921,1.66,3.128,4.779,3.156,6.584l-.476,0C181.745,225.955,178.768,220.093,177.963,218.725Z" fill="#6ca54d"/><path d="M169.607,257.336a24,24,0,0,1,4.973-1.48c2.395-.465,9.357-4.12,10.435-6.092-.031-.226-.065-.451-.095-.677a39.044,39.044,0,0,1-5.689-5.453c.872.192,6.386,5.148,7.718,5.534,1.246.362,2.634-1.739,4.534-1.367-.7.638-2.545,1.51-3.248,2.662a10.294,10.294,0,0,1-1.562-.12c-1.7,1.156-2.877,2.572-4.725,3.541l-.439-.516a22.8,22.8,0,0,0-2.938,1.93A38.367,38.367,0,0,1,169.607,257.336Z" fill="#82b764"/><path d="M198.071,256c1,1.1,6.849,5.137,8.541,6.446.294.905.611,1.968.951,2.841.633,2.616,3.712,13.7,3.684,15.812l-.294.195a60.661,60.661,0,0,1-18.659-1.531c-11.107-2.757-18.807-7.7-24.722-17.565,1.129-1.976,8.531-4.046,10.692-3.716.329.007.749-.046,1.087-.075l.4-.933.709-.244C184.858,257.263,192.539,256.076,198.071,256Z" fill="#588c3e"/><path d="M178.264,258.481c.329.007.749-.046,1.087-.075l.4-.933.709-.244c.415,1.531,13.139,13,12.716,15.471l-.5.01a53.683,53.683,0,0,0-10.37-11.1C181.868,261.274,178.365,258.632,178.264,258.481Z" fill="#6ca54d"/><path d="M197.08,117.47c2.176-2.723-1.188-12.707,9.943-14.009,7.4-.866,14.229,2.332,19.856,6.868,15.233,12.28,26.024,29.923,36.324,46.264l-.246.48a9.36,9.36,0,0,1-3.15-3.106l.016-.693c-2.653-6.159-23.307-23.082-30.175-26.859a83.086,83.086,0,0,0-9.108-4.228c6.217-1.5,4.97-.836,10.407-.366l.378-.326c-1.5-2.532-11.611.285-12.955-.144-3.749-1.193-7.568-2.043-11.307-3.115-.077-.223-.15-.448-.242-.666C206.253,116.207,199.057,118.264,197.08,117.47Z" fill="#6ca54d"/><path d="M131.414,230.919a9.99,9.99,0,0,0,2.953-.185c3.761,4.645,10.622,13.914,10.165,20.328-.126,1.72-1.283,3.118-.869,4.607l-1.056-.074c-2.14-3.146-6.3-4.947-8.854-7.818a5.48,5.48,0,0,1,.169-3.179C136.3,239.935,136.086,234.041,131.414,230.919Z" fill="#6ca54d"/><path d="M198.071,256c2.438-.059.5,1.022,2.889-.046l4.442.093.823-.124c1.111,1.033.731,3.837.89,5.418a24.74,24.74,0,0,1,.448,3.946c-.34-.873-.657-1.936-.951-2.841C204.92,261.136,199.066,257.1,198.071,256Z" fill="#82b764"/><path d="M200.96,255.953l4.442.093c.249.132.623.39.875.549.519,1.125.4,2.926.411,4.222A40.111,40.111,0,0,1,200.96,255.953Z" fill="#588c3e"/><path d="M211.953,235.84l.642.4c.414,1.151-1.228,12.959-1.311,15.328-.156,4.378.933,9.124.3,13.417l-.912.5a29.955,29.955,0,0,1-1.452-4.975C207.717,253.51,207.99,241.977,211.953,235.84Z" fill="#78ae5a"/><path d="M206.081,251.119l.4.154a4.844,4.844,0,0,1,.043,2.562c-1.019.576-3.144.278-4.344.259a1.646,1.646,0,0,1-.8-.281l.205-.56A29.589,29.589,0,0,1,206.081,251.119Z" fill="#6ca54d"/><path d="M42.951,227.561C63.713,223.072,88,214.245,109.716,217.45c5.047.745,8.8,2.825,13.477,4.379-1.747.928-2.4.948-3.5,2.695a18.114,18.114,0,0,1,2.186,1.754l.006.246a6.448,6.448,0,0,0,3.718,1.334l.442.194,1.618.835c.718,1.017.641.9,2.087,1.393l1.667.639c4.672,3.122,4.89,9.016,2.508,13.679-.688.961-.866,1.668-1.43,2.6-1.115,1.848-2.8,3.184-4.255,4.7a10.8,10.8,0,0,1,5.2-1.025c1.5,1.219,8.341,6.3,8.114,7.806-7.208,5.141-15.647,6.761-24.372,6.641a48.359,48.359,0,0,1-17.437-3.6c-5.127-2.134-9.858-5.281-14.579-8.2q-8.833-5.5-17.745-10.861-7.961-4.686-15.982-9.273c-1.713-.987-7.573-4.2-8.7-5.356Z" fill="#588c3e"/><path d="M42.951,227.561C63.713,223.072,88,214.245,109.716,217.45c5.047.745,8.8,2.825,13.477,4.379-1.747.928-2.4.948-3.5,2.695a11.255,11.255,0,0,0-8.642.465c-3.92,1.814-5.688,7.273-7.8,9.69a4.33,4.33,0,0,0-.905,1.552c.516.964.945,1.04,2.057,1.538-1.124-.072-1.615-.016-2.395-.641l-.092-1.035c-1.206-1.773-6.554-2.007-8.577-2.145-2.551-.174-17.084,4.362-18.322,4.106l.028-.214c1.246-1.352,11.893-4.209,14.441-5-10.014-1.541-20.265-2.036-29.695-3.548l-.4-.006C57.579,229.439,44.437,228.287,42.951,227.561Z" fill="#6ca54d"/><path d="M59.388,229.291l-.261-.078c-1.471-.431-4.525-.548-5.158-.835l.31.08.2-.2c1.912-.187,8.608-.4,10.158.3l-.7.163.246-.02-1.063.056-.129.507q-1.6.007-3.2.033Z" fill="#82b764"/><path d="M103.244,234.679c2.116-2.417,3.884-7.876,7.8-9.69a11.255,11.255,0,0,1,8.642-.465,18.114,18.114,0,0,1,2.186,1.754l.006.246a6.448,6.448,0,0,0,3.718,1.334l.442.194,1.618.835c.718,1.017.641.9,2.087,1.393l1.667.639c4.672,3.122,4.89,9.016,2.508,13.679-.688.961-.866,1.668-1.43,2.6-1.115,1.848-2.8,3.184-4.255,4.7l-.691.692c-1.492-.714-1.394-1.441-1.864-3.016a6.6,6.6,0,0,0-1.5-1.207c-.746.924-.976,1.375-1.989,1.6-.927-.6-1.606-2.928-2.069-4.1l-.212-.147c-2.241-.028-6.748,3.262-8.5,2.131a3.565,3.565,0,0,1,.286-1.974c.734-.923,1.191-5.808,1.4-7.438l-.452,1.2c-1.1.034-1.937-1.926-3.8-.143l-.405-.66a16.084,16.084,0,0,0-4.043-1.069c-1.112-.5-1.541-.574-2.057-1.538A4.33,4.33,0,0,1,103.244,234.679Z" fill="#d8d7a3"/><path d="M113.093,238.444c.982-5.572,7.088-10.447,12.869-9.932,9.406,6.694-12.043,19.48-14.122,19.228l-.147-1.858C112.427,244.959,112.884,240.074,113.093,238.444Z" fill="#eef3cc"/><path d="M103.244,234.679c2.116-2.417,3.884-7.876,7.8-9.69a11.255,11.255,0,0,1,8.642-.465,18.114,18.114,0,0,1,2.186,1.754l.006.246-.23.78c-4.685,2.134-7.663,4.269-9.136,9.346-2.416.132-7.427.614-9.483-.154Q103.129,235.587,103.244,234.679Z" fill="#eef3cc"/><path d="M120.123,245.872a2.422,2.422,0,0,1,1.041-1.472c2.02-.133,2.753,2.31,3.017,3.974-.746.924-.976,1.375-1.989,1.6C121.265,249.373,120.586,247.043,120.123,245.872Z" fill="#e1e4b7"/><path d="M129.225,230.75a5.941,5.941,0,0,1,1.919,2.022c1.685,2.515,1.744,6.081,1.179,8.953s-2.72,8.479-5.29,10.189c-1.01-2.867-1.971-5.77-3.14-8.577a14.816,14.816,0,0,0,4.252-3.607C130.091,236.942,129.707,233.924,129.225,230.75Z" fill="#eef3cc"/><path d="M125.682,249.581c.47,1.575.372,2.3,1.864,3.016l-.316.336c-2.978-.068-.964-.255-3.8.579-2.45.72-7.733,4.006-9.633,4.171l-.1-.333c3.582-2.017,7.223-4.017,10.852-5.962C125.593,250.831,125.44,250.626,125.682,249.581Z" fill="#6ca54d"/><path d="M108.844,239.5c1.86-1.783,2.7.177,3.8.143l.452-1.2c-.209,1.63-.666,6.515-1.4,7.438.021-1.207.156-2.643.236-3.867-1.1.164-2.935.609-3.825.158C107.846,241.042,108.258,240.775,108.844,239.5Z" fill="#e1e4b7"/><path d="M43.571,186.608a49.278,49.278,0,0,1,1.228-6.776C47.366,167.97,50.948,156,56.907,145.36c4.2-7.532,8.267-13.768,17.106-16.23,8.433-2.349,14.391.43,16.632,9.126a35.713,35.713,0,0,0-5.046.308,4.724,4.724,0,0,0-2.625-1.081l.221-.067-.052.575-.2-.42c1.526,2.311,5.348,1.16,7.773,1.659a39.258,39.258,0,0,1,4.3,1.161,1.859,1.859,0,0,0,1.28.424c6.558,3.374,11.712,6.587,14.395,14.094a11.157,11.157,0,0,1-.626,8.6c-6.711,11.013-25.877,18.214-37.327,21.717-5.268,1.612-25.6,7.031-29.6,6.417C42.561,190.435,43.28,188,43.571,186.608Z" fill="#588c3e"/><path d="M43.571,186.608a49.278,49.278,0,0,1,1.228-6.776C47.366,167.97,50.948,156,56.907,145.36c4.2-7.532,8.267-13.768,17.106-16.23,8.433-2.349,14.391.43,16.632,9.126a35.713,35.713,0,0,0-5.046.308,4.724,4.724,0,0,0-2.625-1.081l.221-.067-.052.575-.2-.42c1.526,2.311,5.348,1.16,7.773,1.659a39.258,39.258,0,0,1,4.3,1.161c-5.437-.029-8.918-1.144-8.663,5.873.2,5.582,3.892,9.389,4.985,14.04-2.689-3.388-5.569-8.221-6.192-12.536-.181-1.255.31-6.5-1.154-6.294-6.984,1-11.052,2.429-10.775,10.421a46.135,46.135,0,0,0,1.132,10.2c.449,1.939,2.373,6.873,2.367,8.319-4.466-9.292-5.535-13.427-4.826-23.91-8.681,7.252-10.115,10.83-9.3,22.36.119,1.686.862,4.3.62,5.857l-.326.01c-1.575-3.265-2.192-11.345-1.968-15.026-3.177,6.444-12.789,26.9-17.523,31.15A14.94,14.94,0,0,0,43.571,186.608Z" fill="#6ca54d"/><path d="M124.273,107.77a23.694,23.694,0,0,1-5.845,1.484c-9.986,1.152-19.291-3.756-25.357-11.48C85.509,88.181,78.218,78.367,70.51,68.888c-1.105-1.36-3.887-3.61-4.074-5.233,1.246-.567,3.567.157,5.053.474,18.475,2.008,38.718-2.017,51.891,14.219,5.615,6.918,9.108,20.459,3.055,28.024-.191,1.544,1.749,3.592,2.572,5.035-1.443.375-1.544.58-2.757.149a2.3,2.3,0,0,0-1.3-1.054C125.062,108.9,125.127,108.772,124.273,107.77Z" fill="#588c3e"/><path d="M71.489,64.129c18.475,2.008,38.718-2.017,51.891,14.219,5.615,6.918,9.108,20.459,3.055,28.024-.191,1.544,1.749,3.592,2.572,5.035-1.443.375-1.544.58-2.757.149a2.3,2.3,0,0,0-1.3-1.054c.107-1.607.172-1.73-.682-2.732.206-1.889-2.2-5.932-3.321-7.486-1.336-.113-2.34-.25-3.666-.47a7.629,7.629,0,0,0-2.941-.986l5.922.055c-2.216-2.841-4.1-4.986-6.539-7.654-.411-.223-.629-.652-1.068-.981a11.309,11.309,0,0,0-3.785-1.319c-.673-.078-2.794-.191-3.107-.565l1.216-.049a3.063,3.063,0,0,1,1.983-.737l.144-.389c-.921-2.118-5.7-5.163-7.776-6.411-1.6-.959-3.174-.95-5.05-1.119a4.017,4.017,0,0,0,1.848-.5,24.811,24.811,0,0,0-3.666-.5,12.907,12.907,0,0,1,3.067-.174C91.011,74.532,83.182,71.137,76.3,67.69c-2.723-1.362-4.3-1.772-7.2-3.421Z" fill="#6ca54d"/><path d="M98.133,79.155l-.23-1.077c.39.109,2.112,1.257,2.938,1.618l.417-.086.154-.443c-2.616-2.536-1.234-.608-3.522-1.74l.077-.29.881-.153.071-.323.374.163.289-.583c.589.625,2.161,2.859,2.465,3.07,3.1,2.164,5.842,4.186,8.765,6.587l.288-.154c-.291-3.027-2.9-7.1-2.8-9.435.81.978.561,1.686,1.1,2.755,1.108,2.2,4.73,7.533,3.9,10.024-.924.38-2.778-.192-4.426-.159-.673-.078-2.794-.191-3.107-.565l1.216-.049a3.063,3.063,0,0,1,1.983-.737l.144-.389c-.921-2.118-5.7-5.163-7.776-6.411-1.6-.959-3.174-.95-5.05-1.119A4.017,4.017,0,0,0,98.133,79.155Z" fill="#82b764"/><path d="M113.728,91.229l.488-.14a52.566,52.566,0,0,1,9.241,11.411c.58.964.77,2.709,1.7,3.484l.086-.022c.482-3.088-4.654-7.357-3.327-11.044.245.341.285.27.276.722-.1,4.144,4.126,6.98,4.246,10.732-.191,1.544,1.749,3.592,2.572,5.035-1.443.375-1.544.58-2.757.149a2.3,2.3,0,0,0-1.3-1.054c.107-1.607.172-1.73-.682-2.732.206-1.889-2.2-5.932-3.321-7.486-1.336-.113-2.34-.25-3.666-.47a7.629,7.629,0,0,0-2.941-.986l5.922.055C118.051,96.042,116.166,93.9,113.728,91.229Z" fill="#82b764"/><path d="M117.286,99.814c-1.814.106-7.509.526-9.1-.034,2.306-.455,3.8-1.169,6.158-.952A7.629,7.629,0,0,1,117.286,99.814Z" fill="#6ca54d"/><path d="M82.922,338a66.265,66.265,0,0,1,5.685-7.4,202.323,202.323,0,0,1,17.253-19.39c7.782-7.443,21.428-18.051,32.692-12.559,3.343,1.63,5.031,4.235,9.022,4.319l-.218.517.586.444a3.5,3.5,0,0,0-2.167.136c-.405.894.055,2.02.209,2.956.51,3.089-1.314,5.5-3.07,7.913a32.32,32.32,0,0,1-7.288,6.915c-10.429,7.629-21.723,9.059-33.987,11.856C95.425,335.121,89.2,336.97,82.922,338Z" fill="url(#linear-gradient-4)"/><path d="M163.955,301.184c4.111-1.661,8.065-2.269,12.255-.472,11.252,4.825,20.145,23.145,25.484,33.55.964,2.183,4.083,6.554,3.852,8.792l-.672.144c-3.374-1.688-6.686-3.456-10.091-5.093-11.5-5.529-28.989-13.066-34.122-25.625-.8-1.965-1.48-5.277-.638-7.3a8.27,8.27,0,0,0,1.461-1.545A4.012,4.012,0,0,0,163.955,301.184Z" fill="#629441"/><path d="M163.955,301.184c4.111-1.661,8.065-2.269,12.255-.472,11.252,4.825,20.145,23.145,25.484,33.55a4.63,4.63,0,0,1-.412,2.434l-.644.129c-.86-.694-3.39-5.314-4.639-6.824a128.419,128.419,0,0,0-16.068-16.159,51.807,51.807,0,0,0-8.746-6.092c-2.312-1.23-8.218-2.628-9.7-4.111A4.012,4.012,0,0,0,163.955,301.184Z" fill="#6ca54d"/><path d="M144.722,111.975c1.268-1.363,8.056-6.224,9.845-5.272a4.7,4.7,0,0,1-1.335,3.758c.083,5.184,4.829,4.065,8.43,5.722a9.974,9.974,0,0,1,2.232,1.161l3.171,2.337a24.991,24.991,0,0,0-10.748,4.822,14.761,14.761,0,0,1,1.044,2.439c.783,2.135,2.514,6.646,3.1,8.771.086.3.175.99.227,1.329l-.4.413c-2.4.487-9.793-2.43-12.949-3.118l-.381-.081a8.715,8.715,0,0,1-4.034-4.374l-1.175-.819a8.059,8.059,0,0,1-2.269,2.223c-1.7,1.315-6.723,2.4-8.571,2.175-.749-.1-1.5-.232-2.232-.4l-2.253.2c-.9.265-1.173.03-1.7-.631l.193-.539-.006-2.366-1.253-.123-.924-.22.163-.514c1.026-1.3,1.907-2.346,3.015-3.569l.144,1.159c.777.351,1.339-.251,2.06-.792,2.557-1.972,5.882-2.145,8.832-3.181a3.34,3.34,0,0,0,2.042-4.45l.6-.73.077-.144c2.042-1.911-1.694-6.5-1.283-9.286l.543.3c.645,1.088,1.413,4.671,1.845,6.15l.538.281.405-.272c.669-1.613.78-1.178.368-2.575A4.138,4.138,0,0,0,144.722,111.975Z" fill="#eef3cc"/><path d="M144.722,111.975c1.268-1.363,8.056-6.224,9.845-5.272a4.7,4.7,0,0,1-1.335,3.758c.083,5.184,4.829,4.065,8.43,5.722a9.974,9.974,0,0,1,2.232,1.161l3.171,2.337a24.991,24.991,0,0,0-10.748,4.822,14.761,14.761,0,0,1,1.044,2.439c-.052,1.088-.031,2.386-.04,3.494l-.3.067c-.107-.144-.218-.286-.331-.426a14.363,14.363,0,0,0-10.444-5.777c-.976-.091.092-.845-.424-2.2-.393-1.285-.746-1.434-2.047-2.215l-.455.116a4.468,4.468,0,0,1-.7,1.09,11.445,11.445,0,0,1-2.149-3.383l-.869-.409.077-.144c2.042-1.911-1.694-6.5-1.283-9.286l.543.3c.645,1.088,1.413,4.671,1.845,6.15l.538.281.405-.272c.669-1.613.78-1.178.368-2.575A4.138,4.138,0,0,0,144.722,111.975Z" fill="#e1e4b7"/><path d="M163.894,117.344l3.171,2.337a24.991,24.991,0,0,0-10.748,4.822,14.761,14.761,0,0,1,1.044,2.439c-.052,1.088-.031,2.386-.04,3.494l-.3.067c-.107-.144-.218-.286-.331-.426a14.363,14.363,0,0,0-10.444-5.777c-.976-.091.092-.845-.424-2.2l.28-.853C149.422,117.8,159.326,117.454,163.894,117.344Z" fill="#eef3cc"/><path d="M144.722,111.975c1.268-1.363,8.056-6.224,9.845-5.272a4.7,4.7,0,0,1-1.335,3.758c-1.664,1.676-.184,2.414-1.719,3.311a10.743,10.743,0,0,1-2.763-.668,13.11,13.11,0,0,0,2.2-2.693c-1.243.278-6.674,6.064-7.942,7.352-.16.857-.114.843-.718,1.438l-.6-.077-.243-.513C141.407,115.827,142.991,113.869,144.722,111.975Z" fill="#f6f7d6"/><path d="M148.75,113.1a10.743,10.743,0,0,0,2.763.668c1.535-.9.055-1.635,1.719-3.311.083,5.184,4.829,4.065,8.43,5.722-.513.31-7.813.442-9.308.752-1.747.363-7.233,3.185-7.92,2.906C144.633,118.419,147.7,114.2,148.75,113.1Z" fill="#eef3cc"/><path d="M124.921,132.087a2.1,2.1,0,0,0,1.041-1.216,3.839,3.839,0,0,1-.2-1.939c2.278-2.755,8.9-5.05,12.351-5.9,3.205,2.7,3.637,1.172,3.644,6.027a8.059,8.059,0,0,1-2.269,2.223c-1.7,1.315-6.723,2.4-8.571,2.175-.749-.1-1.5-.232-2.232-.4l-2.253.2c-.9.265-1.173.03-1.7-.631Z" fill="#eef3cc"/><path d="M139.6,117.3l.869.409a11.445,11.445,0,0,0,2.149,3.383,4.468,4.468,0,0,0,.7-1.09l.455-.116c1.3.781,1.654.93,2.047,2.215.516,1.353-.552,2.107.424,2.2a14.363,14.363,0,0,1,10.444,5.777c.113.14.224.282.331.426l.3-.067c.009-1.108-.012-2.406.04-3.494.783,2.135,2.514,6.646,3.1,8.771-3.393-2.728-5.115-6.392-9.21-8.7-3.653-2.063-4.844-2.187-8.823-1.942.083,1.526.325,3.279.5,4.816l-1.175-.819c-.007-4.855-.439-3.329-3.644-6.027-3.454.846-10.073,3.141-12.351,5.9a3.839,3.839,0,0,0,.2,1.939,2.1,2.1,0,0,1-1.041,1.216l-.006-2.366-1.253-.123-.924-.22.163-.514c1.026-1.3,1.907-2.346,3.015-3.569l.144,1.159c.777.351,1.339-.251,2.06-.792,2.557-1.972,5.882-2.145,8.832-3.181a3.34,3.34,0,0,0,2.042-4.45Z" fill="#d8d7a3"/><path d="M221.823,58.305l.835.031c1.5,1.646.089,6.732,3.838,6.269.678-.084.617.042,1.053.476a13.6,13.6,0,0,0-.089,2.762c1.66.171,4.027-.044,5.053.532-.667,1.393-2.969,5.393-3.009,6.266.807,1.806,2.646,1.843,4.494,2.318-.874,1.166-1.7,1.85-1.7,3.155a4.136,4.136,0,0,0,1.32,1.132l1.139.33c1.449,4.088-10.331,7.441-13.382,6.769-2.217-.488-4.062-2.1-6.189-2.555.66-1.975-.276-3.611-1.176-5.346l-.328-.054-.028-.241A13.175,13.175,0,0,1,213,78.063c-.009-1.56-.092-1.616-1.151-2.634l.006-.2L211,73.883C211.668,62.555,213.74,64.2,221.823,58.305Z" fill="#eef3cc"/><path d="M214.007,80.444c9.944,5.363,13.64-8.211,18.506-12.069-.667,1.393-2.969,5.393-3.009,6.266.807,1.806,2.646,1.843,4.494,2.318-.874,1.166-1.7,1.85-1.7,3.155a4.136,4.136,0,0,0,1.32,1.132l1.139.33c1.449,4.088-10.331,7.441-13.382,6.769-2.217-.488-4.062-2.1-6.189-2.555C215.843,83.815,214.907,82.179,214.007,80.444Z" fill="#d8d7a3"/><path d="M227.358,78.562a23.845,23.845,0,0,0,6.257,2.684l1.139.33c-1.489,4.532-16.968,7.233-18.871,1.022C221.925,83.294,223.41,83.907,227.358,78.562Z" fill="#eef3cc"/><path d="M221.823,58.305l.835.031c1.5,1.646.089,6.732,3.838,6.269.678-.084.617.042,1.053.476a13.6,13.6,0,0,0-.089,2.762c-6.383-.247-13.674,4.114-13.806,11.173-.006.378-.009.756,0,1.133A13.175,13.175,0,0,1,213,78.063c-.009-1.56-.092-1.616-1.151-2.634l.006-.2L211,73.883C211.668,62.555,213.74,64.2,221.823,58.305Z" fill="#eef3cc"/><path d="M221.823,58.305l.835.031c1.5,1.646.089,6.732,3.838,6.269.678-.084.617.042,1.053.476a13.6,13.6,0,0,0-.089,2.762c-6.383-.247-13.674,4.114-13.806,11.173-.006.378-.009.756,0,1.133A13.175,13.175,0,0,1,213,78.063c-.009-1.56-.092-1.616-1.151-2.634l.006-.2c1.418.086,1.418-.358,2.143-1.795,1.78-3.524,4.583-4.718,8.074-6.032C222.806,65.068,223.61,60.248,221.823,58.305Z" fill="#d8d7a3"/><path d="M117.357,175.79l1,.649.307.111c1.135,3.921-1.425,9.981-1.505,14.278a39.9,39.9,0,0,1-.564,4.734c-1.95,6.229-8.556,6.731-14.214,7.751-3.442,1.052-3.509-6.395-3.914-8.71a9.51,9.51,0,0,1,2.078-7.659l1.59-1.824c.955-.666,1.876-1.367,2.806-2.067,2.459-2.271,7.767-6.606,11.024-7.133Z" fill="#82b764"/><path d="M117.357,175.79l1,.649.307.111c1.135,3.921-1.425,9.981-1.505,14.278a39.9,39.9,0,0,1-.564,4.734c-.636-4,.838-2.95-1.726-7.7a3.049,3.049,0,0,0-.712-.444,9.805,9.805,0,0,1-5.8.3c-.12-.849.8-1.187.872-2.812-.777-1.022-2.4-.555-4.289-1.85,2.459-2.271,7.767-6.606,11.024-7.133Z" fill="#588c3e"/><path d="M117.357,175.79l1,.649c-2.7.208-3.9,3.512-5.588,3.741l-.442-.4c.461-2.041,3.233-2.17,3.638-3.858Z" fill="#6ca54d"/><path d="M114.87,187.86c2.564,4.752,1.09,3.7,1.726,7.7-1.95,6.229-8.556,6.731-14.214,7.751l.126-.118c1.946-1.876,6.13-2.523,8.2-4.32,1.667-1.447,2.631-3.827,4.43-5.418A20.232,20.232,0,0,0,114.87,187.86Z" fill="#78ae5a"/><path d="M102.136,185.12l1.379.277.294.485c-.693.931-2.674,3.885-3.506,4.164-.374-.94.123-2,.243-3.1Z" fill="#78ae5a"/><path d="M135.494,104.357c4.679-5.161,6.124,4.393,6.6,7.394.412,1.4.3.962-.368,2.575l-.405.272-.538-.281c-.432-1.479-1.2-5.062-1.845-6.15l-.543-.3c-.411,2.784,3.325,7.375,1.283,9.286l-.077.144-.6.73a3.34,3.34,0,0,1-2.042,4.45c-2.95,1.036-6.275,1.209-8.832,3.181-.721.541-1.283,1.143-2.06.792l-.144-1.159,1.105-.721c-.35-1.75.181-3.2-.491-5.587-1.461-1.073-5.385-3.079-5.971-4.37,1.148-1.037,2.812-.294,4.473-1.424a14.323,14.323,0,0,0-.077-2.691,2.3,2.3,0,0,1,1.3,1.054c1.213.431,1.314.226,2.757-.149,4.639,1.294,4.4-3.32,6.3-6.719Z" fill="#eef3cc"/><path d="M135.494,104.357c4.679-5.161,6.124,4.393,6.6,7.394.412,1.4.3.962-.368,2.575l-.405.272-.538-.281c-.432-1.479-1.2-5.062-1.845-6.15l-.543-.3c-.411,2.784,3.325,7.375,1.283,9.286a27.464,27.464,0,0,1-2.79-1.562c-3.482-1.564-6-2.7-9.83-2.681,1.016-.211,6-.379,7.533-.5C134.782,109.76,135.515,106.76,135.494,104.357Z" fill="#f6f7d6"/><path d="M126.53,118.987l2.707,2.267c2.978-1.479,4.5-2.518,7.875-1.619l.11.319c-2.981.881-6.376.052-9.489,4.122-.285.374-.276.341-.712.5C126.671,122.824,127.2,121.373,126.53,118.987Z" fill="#d8d7a3"/><path d="M146.7,399.642c1.818.018,4.043.365,5.781-.187.62-.617.512-1.219.546-2.063.344-8.449-.116-17.127-.119-25.6q-.051-22.431.543-44.857c.141-7.451-.264-15.22.6-22.61.116-1,.132-1.1.884-1.689,1.188,3.286-.292,13.282.387,17.635.015,11.943-.265,23.87-.44,35.809-.061,4.246.381,8.651.126,12.866a108.876,108.876,0,0,0-.2,11.227q-.1,9.983.344,19.963c-2.966-.027-5.953.013-8.915-.15l.046-33.536c.027-6.419-.2-13.047.39-19.436.767,5.143.162,11.184.135,16.409Q146.608,381.533,146.7,399.642Z" fill="#6ca54d" fill-opacity="0.988"/><path d="M155.32,320.274c.555-4.817-.568-12.585.614-16.759l.865-.286a82.682,82.682,0,0,1,.191,11.333c-.08,6.555-.185,13.177-.439,19.724-.132,3.359-.482,6.69-.5,10.051-.113,18.8,1.342,37.576.866,56.386l-1.023-.452c-.884-1.218-.485-27.126-.884-31.322.255-4.215-.187-8.62-.126-12.866C155.055,344.144,155.335,332.217,155.32,320.274Z" fill="#fff" fill-opacity="0.012"/><path d="M127.942,193.95c2.312-2.65,5.538-3.123,8.866-3.232,1.9,1.383,2.5,1.531,3.107,3.738l.135.657c-1.477,3.209-3.764,6.382-7.543,6.6C125.336,203.305,123.868,199.22,127.942,193.95Z" fill="#629441"/><path d="M130.726,199.93a20.551,20.551,0,0,1,.452-4.449c2.311-.095,3.779-1.874,6.33-2.754,1.332.226,1.2.548,2.407,1.729l.135.657c-1.477,3.209-3.764,6.382-7.543,6.6Z" fill="#588c3e"/><path d="M132.507,201.715c-7.171,1.59-8.639-2.5-4.565-7.765a14.629,14.629,0,0,0,2.784,5.98Z" fill="#eef3cc"/><path d="M76.217,105.307c2.953-.612,5.188-.7,7.739,1.043,1.768,1.208,1.477,1.865,2.5,2.872a4.786,4.786,0,0,0,.688,1.628c-1.391.85-1.713,2.032-3.7,3.018-2.674,1.329-4.955,2.469-7.2-.393l-.779-.585c-.854-.314-1.938-.116-3.463-.655-3.107-2.712,1.357-6.047,4.052-6.79Z" fill="#588c3e"/><path d="M75.459,112.89c-.854-.314-1.938-.116-3.463-.655-3.107-2.712,1.357-6.047,4.052-6.79C75.287,108.629,75.891,110.41,75.459,112.89Z" fill="#eef3cc"/><path d="M76.217,105.307l.439,1.963c1.787-.031,7.444-.613,8.154,1.216-2.5-.47-6.131-.094-8.986-.541.135,1.761.344,3.791.414,5.53l-.779-.585c.432-2.48-.172-4.261.589-7.445Z" fill="#6ca54d"/><path d="M215.278,217.53l1.3.839a2.286,2.286,0,0,0,.948-.321c3.316,7.7,6.192,13.21,5.713,22.287-1.31-3.655-.264-6.989-3.14-9.1-1.3.743-2.453,1.664-3.862,1.54A6.641,6.641,0,0,1,213.9,230.8c-1,.328-2.109.664-3.083,1.04a20.326,20.326,0,0,1-1.875,3.19,39.706,39.706,0,0,1,4-10.756C214.112,222.044,215.33,220.093,215.278,217.53Z" fill="#588c3e"/><path d="M215.336,223.044c.5,1.639-.911,4.936-1.581,6.523a4.325,4.325,0,0,1-.346-1.352A9.193,9.193,0,0,1,215.336,223.044Z" fill="#6ca54d"/><path d="M129.311,219.855a3.782,3.782,0,0,0,1.664-.5l.893,1.112,1.293.192c-.743,3.007,2.093,4.161.488,6.9-.881,1.506-.194,1.947.718,3.175a9.99,9.99,0,0,1-2.953.185l-1.667-.639c-1.446-.491-1.369-.376-2.087-1.393l-1.618-.835-.442-.194a6.448,6.448,0,0,1-3.718-1.334l-.006-.246a18.114,18.114,0,0,0-2.186-1.754c1.1-1.747,1.756-1.767,3.5-2.695C125.243,220.02,126.637,220.039,129.311,219.855Z" fill="#588c3e"/><path d="M123.193,221.829c2.05-1.809,3.444-1.79,6.118-1.974-1.513,1.511-5.691,6.286-7.435,6.423a18.114,18.114,0,0,0-2.186-1.754C120.792,222.777,121.446,222.757,123.193,221.829Z" fill="#588c3e"/><path d="M129.311,219.855a3.782,3.782,0,0,0,1.664-.5l.893,1.112-1.4.074c-1.753,1.464-5.3,4.209-6.143,6.275a9.369,9.369,0,0,0,1.271,1.046,6.448,6.448,0,0,1-3.718-1.334l-.006-.246C123.62,226.141,127.8,221.366,129.311,219.855Z" fill="#6ca54d"/><path d="M127.66,228.887c2.059-.978,2.812-4.432,4.211-5.3-.377,3.149-2.336,5.4-2.124,6.694C128.3,229.789,128.378,229.9,127.66,228.887Z" fill="#6ca54d"/><path d="M144.071,400.259c-.608-3.877-.264-8.408-.273-12.353-.021-9.348-.114-18.748.221-28.093.1-2.745.651-5.449.725-8.182.288-10.7-.559-21.52.472-32.187a15.379,15.379,0,0,1,1.538-4.915c-.187,6.15-.635,12.288-.838,18.437q-.861,24.176-.816,48.373c-.006,2.56.454,17.52-.221,18.533Z" fill="#fff" fill-opacity="0.012"/><path d="M86.452,109.222c6.545,2.149,12.375,3.293,18.472,6.854a71.3,71.3,0,0,1,14.539,11.6c1.074,1.084,1.937,1.839,3.438,1.192l-.163.514.924.22c-.564.194-1.037,1.148-1.964,1.873h-.759c-4.254-3.041-10.376-9.514-14.474-12.267A59.739,59.739,0,0,0,87.14,110.85,4.786,4.786,0,0,1,86.452,109.222Z" fill="#82b764" fill-opacity="0.965"/><path d="M202.418,199.21c6.045,4.115,13.044,11.731,15.107,18.838a2.286,2.286,0,0,1-.948.321l-1.3-.839c-1.655-3.305-8.875-14.086-12.94-13.1a3.524,3.524,0,0,1-.531,2.286c-1.188-.031-3.816-2.093-5.056-2.93l.393-.214a27.6,27.6,0,0,0,4.077,2.105C202.827,204.421,203.063,201.121,202.418,199.21Z" fill="#82b764" fill-opacity="0.961"/><path d="M154.933,302.639c.482-.174.684-.139.868-.475a3.577,3.577,0,0,1-1.439-2.842c.675-9.731.485-19.613,1.568-29.284a4.079,4.079,0,0,1,1.308-1.875c-1.246,2.346-.473,18.894-.97,22.529-.12.865-.813,9.608-.731,10.281a1.7,1.7,0,0,0,.885.586c2.744.169,4.924.76,7.533-.375a4.012,4.012,0,0,1-2.471,2.455,8.27,8.27,0,0,1-1.461,1.545c.006-1,.061-1.047-.593-1.782a5.889,5.889,0,0,0-2.631-.173l-.865.286c-1.182,4.174-.059,11.942-.614,16.759C154.641,315.921,156.121,305.925,154.933,302.639Z" fill="#82b764" fill-opacity="0.894"/><path d="M211,73.883l.856,1.348-.006.2c1.059,1.018,1.142,1.074,1.151,2.634a13.175,13.175,0,0,0,.654,2.086l.028.241.009,1.06c-1.314,1.136-4.7,2.549-6.37,3.238l-1.053-.131c.221-.91-.583-2.69.006-5.03C207.1,76.251,208.159,75.705,211,73.883Z" fill="#588c3e"/><path d="M211.846,75.429c1.059,1.018,1.142,1.074,1.151,2.634l-.338-.433c-1.016-.06-4.187,3.436-6.4,3.733C207.8,78.382,211.146,78.126,211.846,75.429Z" fill="#629441"/><path d="M213.679,80.39l.328.054c.9,1.735,1.836,3.371,1.176,5.346a78.558,78.558,0,0,1-8.593.361q-4.986,5.465-9.5,11.337c.073-1.768.856-1.724.654-2.948l-.78-.223c1.1-1.9,7.343-8.333,9.3-9.76l1.053.131c1.673-.689,5.056-2.1,6.37-3.238Z" fill="#6ca54d" fill-opacity="0.973"/><path d="M128.685,133.058c.737.171,1.483.305,2.232.4,1.848.222,6.873-.86,8.571-2.175.021,1.983-.212,5.112,1.191,6.626.405.437.949.356,1.553.7.016,2.091.387,12.3.237,13.552-1.6-3.719,1.793-14.7-3.967-14.195l-.66.163c-1.691-2.092-2.268-2.211-2.029-4.711l-.512-.429c-2.539.31-3.687,9.318-2.638,11.353-2.508-1.463-1.037-2.913-1.353-5.47l-1.916-.112-.289-.343c1.142-1.139,1.216-3.277.817-4.757Z" fill="#78ae5a" fill-opacity="0.961"/><path d="M141.757,129.063l1.175.819a8.715,8.715,0,0,0,4.034,4.374c-1.381.8-2.714,2.948-4.734,4.358-.6-.346-1.148-.265-1.553-.7-1.4-1.514-1.17-4.643-1.191-6.626A8.059,8.059,0,0,0,141.757,129.063Z" fill="#588c3e"/><path d="M147.218,258.693c.476-.144.856-.292,1.317-.47,1.329-3.143-.2-9.4,1.234-12.927.362-.892.651-.828,1.529-1.2-.614,6.008-.8,10.9-.946,16.913C149.376,260.3,148.124,259.45,147.218,258.693Z" fill="#fff" fill-opacity="0.008"/><path d="M144.719,302.054l.761-.355c2.312-4.471.031-18.051,2.963-20.805-.144,2.87-.672,19.6-1.661,21.3a2.164,2.164,0,0,1-1.747.07A2.741,2.741,0,0,1,144.719,302.054Z" fill="#fff" fill-opacity="0.012"/><path d="M123.613,169.483l.231,1.311c.859.029.555-.373,1.921-.353-2.3,2.016-4.724,4.211-7.1,6.109l-.307-.111-1-.649C119.2,174.237,121.194,171.605,123.613,169.483Z" fill="#82b764" fill-opacity="0.937"/><path d="M137.842,138.134l.66-.163c1.219,2.747,1.152,9.114,1.207,12.319C137.867,148.5,137.305,140.5,137.842,138.134Z" fill="#fff" fill-opacity="0.008"/><path d="M126.432,133.257l2.253-.2,1.237.607c.4,1.48.325,3.618-.817,4.757A12.633,12.633,0,0,1,126.432,133.257Z" fill="#fff" fill-opacity="0.016"/></g></svg>