<svg id="Layer_1" data-name="Layer 1" xmlns="http://www.w3.org/2000/svg" viewBox="0 0 300 400"><g id="vegetative"><path d="M147.791,281.845a2.889,2.889,0,0,1,1.451.288c1.041.844,2.315.24,2.811.9.491,2.932-.01,9.215.121,12.438a22.386,22.386,0,0,0,0,3.884l.229.114.689-.319c.8.469.2.336.86,1.084-.839,1.513-1.76,3.17-2.572,4.707-.361.686-1.513.565-1.934,1.657-.086.57-.47,2.345-.113,2.767a3.464,3.464,0,0,0,3.886.164l.315-.107.833-.452c-.933,1.42-.05,16.376-.117,18.9-.008.368.364.493.654.683a8.5,8.5,0,0,1-.923,2.262c-.386-1.016-1.246-1.175-2.1-2.127-1.067-1.187-1.9-2.333-2.864-3.6-.186-1.709.021-3.243-.434-4.909a3.716,3.716,0,0,0,.311-1.912c-.119-11.933.352-23.949.041-35.842C148.939,282.256,147.975,281.92,147.791,281.845Z" fill="#86b865"/><path d="M149.338,309.369a3.464,3.464,0,0,0,3.886.164c-.008,3.026.153,6.053.126,9.082-.015,1.456-.165.943-.5,2.068l-.086.292c-.225-2.757.313-7.783-.263-10.227a1.777,1.777,0,0,0-1.845-.15,2.476,2.476,0,0,1-.251,1.367C149.768,311.489,150.4,310.427,149.338,309.369Z" fill="#7db05e"/><path d="M184.583,307.423l-.531.181c-3.089.439-6.326,1.586-9.2,2.137-3.972.761-10.972-.084-13.335,4.079s-4.517,10.2-6.608,14.734a8.5,8.5,0,0,1-.923,2.262c-.386-1.016-1.246-1.175-2.1-2.127-1.066-1.187-1.9-2.333-2.863-3.6-.186-1.709.021-3.243-.434-4.909-2.3-2.743-6-3.212-6.832-7.584-.474-2.506-4.836-3.3-6.23-4.673-3.709-3.643-1-6.715-6.654-9.54,2.511-5.291,5.368-10.345,7.7-15.728.732-1.693,1.538-6.153,2.383-6.919a4.276,4.276,0,0,1-.165-.6,23.981,23.981,0,0,1,.528-3.282c.43-2.346.91-4.771,2.6-6.549.887-.939,1.467-.855,2.653-.869-2.188-1.327-8.508-1.825-10.712-.437a4.573,4.573,0,0,1-2.991-.608c-4.3-1.524-5.929-.321-6.9,4.045-1.594,7.2-5.542,14.09-6.333,21.375-.226,2.077.892,4.9,1.608,6.737-9.55-.1-15.075,3.255-21.233,10.373l-.518.488.093.281c1.344.124,4.453-.495,5.959-.606a57.251,57.251,0,0,1,13.386.623c.826.291.929.155,1.243.723-.2,1.88-.718,3.6-.994,5.419-.815,5.347-1.564,10.11-3.729,15.165,1.56-1.709,3.1-3.364,4.709-5.059,1.346-1.413,3.555-3.26,4.607-4.888,1.146-1.772,2.054-4.918,2.776-6.966l.5-.346c1.646,1.549,3.715,3.077,5.434,4.627,3.235,2.916,6.412,6.174,9.43,9.239.977.993,6.975,8.039,7.389,8.284l.569.724.169.052c.837.263,4.4.3,4.494.374a38.961,38.961,0,0,1-.023,10.442,6.791,6.791,0,0,1-1.121,2.409c-1.039,1.486-2.435,2.287-3.41,3.544,2.54-.754,3.9-3.379,4.972-5.88,2.8-6.554,5.007-22.264,9.774-27.336,3.5-3.717,15.272-7.063,20.029-9.013,1.027-.421,4.836-.473,5.583-.941C187.745,307.3,186.167,307.291,184.583,307.423Z" fill="#86c65b"/><path d="M126.046,310.756c-.553-1.219,1.31-7.064,1.326-8.779,0-.353.662-.578.946-.66,3.32.46,7.253,10.2,9.682,12.862,2.816,3.091,5.711,4.738,8.585,7.656,1.981,2.183,2.534,4.156,4.258,6.443,1.062,1.407,2.707,1.885,3.1,3.64-.117.51-.169.86-.689,1.127-2,1.029-3.078.666-4.953-.139-.413-.245-6.411-7.291-7.388-8.284-3.018-3.065-6.195-6.323-9.43-9.238C129.761,313.833,127.692,312.305,126.046,310.756Z" fill="#64a343"/><path d="M98.017,305.922c1.217-.294,2.788-1.768,3.914-2.529,3.592-2.425,7.745-5.059,12.229-4.909,2.108.071,4,.4,6.025.537-.208,1.909-.363,6.1-1.719,7.5-.291.3-1.032.193-1.529.19a57.251,57.251,0,0,0-13.386-.623c-1.506.111-4.615.73-5.959.606l-.093-.281Z" fill="#64a343"/><path d="M130.87,263.392a4.573,4.573,0,0,0,2.991.608c-8.079,2.935-10.35,29.12-11.258,36.757-.81-8.51,2.168-23.769,5.644-31.626.971-2.194,1.7-2.629,2.928-4.553C131.369,264.276,131.062,263.848,130.87,263.392Z" fill="#7db05e"/><path d="M131.148,202.045l2.473,1.47c5.561,2.866,14.6,8.881,16.594,15.024,1.068,3.291,2.383,17.969,4.195,18.929,1.286-.428,3.385-2.6,4.151-3.71-.121-5.85.739-5.188,5.293-7.8,4.9-2.817,8.178-3.839,13.974-3.766a29.558,29.558,0,0,1,10.806,2.851,16.1,16.1,0,0,1,2.331.839c-6.752.868-16.015,2.519-21.6,6.668-4.859,3.611-9.077,10.354-12.444,15.352-1.154,1.714-2.1,3.787-3.262,5.48l-.138.112c-1.975,1.618-.8,1.661-3.573,1.814a2.755,2.755,0,0,1-1.213-.158c-3.212-2.022-9.816-11.346-12.665-14.6-.785-.9-2.257-3.1-3.167-3.694-.125-.328-5.831-10.211-5.863-10.241-.3.336-.506.589-.781.941.322-1.571.65-4.29,1.7-5.374.916-.356,1.541.073,2.145-.142.918-.328,1.63-3.083,3.112-2.024,4.771,3.413,10.945,14.421,13.938,19.382l.5-.364a2.485,2.485,0,0,1,.572-1.635l.265-.793c-.071-.831.872-4.135.853-6.261-6.735-6.144-1.742-8.627-4.6-14.08-.8-.77-2.3-.32-2.874-.954C138.1,211.159,134.569,206.475,131.148,202.045Z" fill="#86c65b"/><path d="M150.647,250.766c.565-4.637,1.657-6.251,5.236-9.219,3.839-3.18,2.449-8.68,5.456-11.63,3.534-3.2,9.4-4.869,13.939-6.066,4.049-1.068,9.655,1.355,13.356,1.188a16.1,16.1,0,0,1,2.331.839c-6.752.868-16.015,2.519-21.6,6.668-4.859,3.611-9.077,10.354-12.444,15.352-1.154,1.714-2.1,3.787-3.262,5.48l-.138.112c-1.975,1.618-.8,1.661-3.573,1.814a7.194,7.194,0,0,1-1.144-.772C148.123,252.9,150.427,253.14,150.647,250.766Z" fill="#64a343"/><path d="M131.148,202.045l2.473,1.47c.891,1.9,7.729,6.172,9.783,8.024,7.522,6.778,7.251,17.256,7.61,26.581.033.889.15,6.223-.163,7-.78-.082-1.791-2.5-2.31-3.253.008-1.25.089-4.151-.044-5.269-.071-.831.872-4.135.853-6.261-6.735-6.144-1.742-8.627-4.6-14.08-.8-.77-2.3-.32-2.874-.954C138.1,211.159,134.569,206.475,131.148,202.045Z" fill="#64a343"/><path d="M139.372,232.581l.538-.333c2.747,2.429,10.52,14.727,10.724,18.287l.013.231-.384.11c-.537-.457-1.428-3.025-1.8-3.881C146.2,241.77,142.369,237.365,139.372,232.581Z" fill="#7db05e"/><path d="M153.191,241.53l.282.2c.286.611.117.848-.04,1.489a1.306,1.306,0,0,1-.221-.169C152.853,242.63,153.107,242.014,153.191,241.53Z" fill="#86b865"/><path d="M154.22,283.823a49.479,49.479,0,0,1,9.083-13.69c1.213-1.277,3.59-3.568,5.494-3.527.989.021,1.453.7,2.045,1.4,3.256,2.122,3.949.571,5.886,1.323a9.148,9.148,0,0,1,1.7,2.52c-.092,1.283-.42,3.351-.03,4.463l-.649-.105c-.561.657-.129,1.28-.426,1.731-1.709,2.6-2.926,6.1-4.6,8.636,0,.282.008.548.021.829-1.624.8-10.732,17.894-18.374,21.575l-.833.452-.315.107a3.464,3.464,0,0,1-3.886-.164c-.357-.422.027-2.2.113-2.767.421-1.092,1.573-.971,1.934-1.657.812-1.537,1.733-3.194,2.572-4.707-.655-.748-.056-.615-.86-1.084l-.689.319-.229-.114a22.386,22.386,0,0,1,0-3.884c-.131-3.223.37-9.506-.121-12.438-.5-.664-1.77-.06-2.811-.9l.411.017c2,.068,2.632.251,4.068-1.076l.211.008c.067,1.042-.426,1.579-.1,2.4Z" fill="#86c65b"/><path d="M154.22,283.823a49.479,49.479,0,0,1,9.083-13.69c1.213-1.277,3.59-3.568,5.494-3.527.989.021,1.453.7,2.045,1.4,3.256,2.122,3.949.571,5.886,1.323l-.256.055a35.7,35.7,0,0,1-3.615.334c-2.219,1.533-3.843,4.361-5.352,6.7a217.845,217.845,0,0,0-12.45,22.734c-.925,1.9-2.165,4.1-2.974,6-.965.746-1.518,1.41-2.63,1.456.421-1.092,1.573-.971,1.934-1.657.812-1.537,1.733-3.194,2.572-4.707-.655-.748-.056-.615-.86-1.084l-.689.319-.229-.114a22.386,22.386,0,0,1,0-3.884c-.131-3.223.37-9.506-.121-12.438-.5-.664-1.77-.06-2.811-.9l.411.017c2,.068,2.632.251,4.068-1.076l.211.008c.067,1.042-.426,1.579-.1,2.4Z" fill="#86c65b"/><path d="M170.842,268c3.256,2.122,3.949.571,5.886,1.323l-.256.055a35.7,35.7,0,0,1-3.615.334c-2.219,1.533-3.843,4.361-5.352,6.7a217.845,217.845,0,0,0-12.45,22.734c-.925,1.9-2.165,4.1-2.974,6-.965.746-1.518,1.41-2.63,1.456.421-1.092,1.573-.971,1.934-1.657.812-1.537,1.733-3.194,2.572-4.707-.655-.748-.056-.615-.86-1.084l-.689.319-.229-.114a22.386,22.386,0,0,1,0-3.884c-.131-3.223.37-9.506-.121-12.438-.5-.664-1.77-.06-2.811-.9l.411.017c2,.068,2.632.251,4.068-1.076l.211.008c.067,1.042-.426,1.579-.1,2.4l.39.337q-.27.867-.564,1.725c-.079,1.244-.588,1.2-.643,2.069-.11,1.825-.534,9.941.266,11.008l.3.025c.741-.649,2.077-3.583,2.6-4.619a162.107,162.107,0,0,1,15.182-24.4C171.41,268.888,171.2,268.734,170.842,268Z" fill="#7db05e"/><path d="M189.335,307.281c5.778-.648,13.112,1.856,17.938,5.063-7.452,1.687-14.962,3.146-22.427,4.8-4,.887-8.46,1.54-12.257,3.035a10.919,10.919,0,0,0-5.078,4.538c-2.218,3.723-4.143,7.695-6,11.609-1.538,3.335-4.844,13.445-7.165,15.562a2.855,2.855,0,0,1-2.181,1.137,17.8,17.8,0,0,1-3.189-.35c-.051-.743-.017-1.482.006-2.225,2.54-.754,3.9-3.379,4.972-5.88,2.8-6.554,5.007-22.264,9.774-27.336,3.5-3.717,15.272-7.063,20.029-9.013C184.779,307.8,188.588,307.749,189.335,307.281Z" fill="#64a343"/><path d="M118.879,357.9c4.353-4.043,10.1-8.32,16.349-8.13a10.268,10.268,0,0,1,7.314,3.555,24.02,24.02,0,0,1,5.243,9.59c.324,1.514,2.133,5.02,3.392,5.939.987.436,2.229.772,2.636,1.87.138.365.042.53-.05.91a4.354,4.354,0,0,1-2.2,1.392,4.982,4.982,0,0,1-1.135.115,2.832,2.832,0,0,1-2.106-1.213c-.622-.712-1.1-1.59-1.685-2.344a30.244,30.244,0,0,0-4.375-4.5c-7.417-6.284-11.974-7.128-21.461-6.337-.624-.085-1.256.138-1.811-.208Z" fill="#64a343"/><path d="M144.573,264.437c1.369.429,3,1.108,3.717,2.444a2.126,2.126,0,0,0,.57.921c1.094,1.193,1.478,3.559,2.022,4.691.395,1.026,2.086,5.416,2.683,5.983a5.651,5.651,0,0,1,.367,2.606l-.211-.008c-1.436,1.327-2.073,1.144-4.068,1.076l-.411-.017a2.889,2.889,0,0,0-1.451-.288c-2.638-.958-6.716-4.186-8.833-6.109a4.276,4.276,0,0,1-.165-.6,23.981,23.981,0,0,1,.528-3.282c.43-2.346.91-4.771,2.6-6.549C142.807,264.367,143.387,264.451,144.573,264.437Z" fill="#64a343"/><path d="M148.868,333.63l.169.052c.837.263,4.4.3,4.494.374a38.961,38.961,0,0,1-.023,10.442,6.791,6.791,0,0,1-1.121,2.409c-1.039,1.486-2.435,2.287-3.41,3.544-.023.743-.057,1.482-.006,2.225,1.118,1.016,2.759.684,4.2.651-.046,4.98.419,10.622-.09,15.514-.6.334-1.229.077-1.9.011-1.259-.919-3.068-4.425-3.392-5.939a1.145,1.145,0,0,0,.516.284,2.179,2.179,0,0,0,.311-1.148c.194-3.1-.009-6.27.018-9.38Z" fill="#86b865"/><path d="M148.326,371.926a2.832,2.832,0,0,0,2.106,1.213,4.982,4.982,0,0,0,1.135-.115c.536-.017,1.323-.161,1.77.169v26.376c-1.833.008-3.682-.029-5.514.038C148.424,397.24,148.683,374.8,148.326,371.926Z" fill="#86b865"/><path d="M172.746,287.4c-.013-.281-.017-.547-.021-.829,1.676-2.54,2.893-6.039,4.6-8.636.3-.451-.135-1.074.426-1.731l.649.105c.51,2.1.048,4.524.434,6.757.433,2.5,1.9,5.061,2.47,7.337.7,2.839,2.638,9.57,2.444,12.31-.073,1.072.112,2.136-.376,2.82-.432-.532-2.321-5.065-2.866-6.148A54.946,54.946,0,0,0,172.746,287.4Z" fill="#64a343"/><path d="M92.727,370.331c3.556-1.619,7.184-3.226,10.606-5.115,4.549-2.511,8.585-5.429,13.617-6.976l-.083.829a1.678,1.678,0,0,0,.844.394c-5.421,7.387-7.649,9.819-17.063,11.263-1.754.269-3.664.351-5.381.745-.594-.052-1.182-.077-1.778-.09C92.942,371.033,92.952,370.916,92.727,370.331Z" fill="#86c65b"/><path d="M126.263,227.548c.275-.352.478-.6.781-.941.032.03,5.738,9.913,5.863,10.241-7.035,5.45-8.512,6.473-16.71,9.528C121.747,239.154,124.211,236.517,126.263,227.548Z" fill="#64a343"/><path d="M148.971,352.676a17.8,17.8,0,0,0,3.189.35,2.855,2.855,0,0,0,2.181-1.137c-.374,11.417.144,22.967.238,34.395.023,2.918-.349,11.609.171,13.713-2.514,0-4.8.007-7.086,0l.159-.39c1.832-.067,3.681-.03,5.514-.038V373.193c-.447-.33-1.234-.186-1.77-.169a4.354,4.354,0,0,0,2.2-1.392c.092-.38.188-.545.05-.91-.407-1.1-1.649-1.434-2.636-1.87.672.066,1.3.323,1.9-.011.509-4.892.044-10.534.09-15.514C151.73,353.36,150.089,353.692,148.971,352.676Z" fill="#7db05e"/><path d="M149.2,255.662a13.092,13.092,0,0,1,2.548.168c-.788,3.111.3,10.174-.058,13.745-.117,1.156.5,2.685.271,3.994-.565-.32-.647-.663-1.075-1.076-.544-1.132-.928-3.5-2.022-4.691a2.126,2.126,0,0,1-.57-.921l.7.2C149.378,266.312,149.2,257.254,149.2,255.662Z" fill="#86b865"/><path d="M149.952,255.3c2.778-.153,1.6-.2,3.573-1.814l.138-.112a4.68,4.68,0,0,0-.823,1.647c-.236,6.888.29,13.822.251,20.72a6.757,6.757,0,0,0,.474,2.731c-.6-.567-2.288-4.957-2.683-5.983.428.413.51.756,1.075,1.076.226-1.309-.388-2.838-.271-3.994.361-3.571-.73-10.634.058-13.745a13.092,13.092,0,0,0-2.548-.168l-.457-.516A2.755,2.755,0,0,0,149.952,255.3Z" fill="#7db05e"/><path d="M118.879,357.9l.115.643c.555.346,1.187.123,1.811.208a21.381,21.381,0,0,0-3.094.714,1.678,1.678,0,0,1-.844-.394l.083-.829A15.579,15.579,0,0,1,118.879,357.9Z" fill="#7db05e"/></g></svg>